<?xml version="1.0" encoding="utf-8"?>
<!-- Generator: Adobe Illustrator 18.0.0, SVG Export Plug-In . SVG Version: 6.00 Build 0)  -->
<!DOCTYPE svg PUBLIC "-//W3C//DTD SVG 1.1//EN" "http://www.w3.org/Graphics/SVG/1.1/DTD/svg11.dtd">
<svg version="1.1" id="Layer_1" xmlns="http://www.w3.org/2000/svg" xmlns:xlink="http://www.w3.org/1999/xlink" x="0px" y="0px"
	 viewBox="0 0 791 72" enable-background="new 0 0 791 72" xml:space="preserve">
<g>
	<g>
		<defs>
			<rect id="SVGID_1_" y="-16.9" width="110" height="110"/>
		</defs>
		<clipPath id="SVGID_2_">
			<use xlink:href="#SVGID_1_"  overflow="visible"/>
		</clipPath>
		<polygon clip-path="url(#SVGID_2_)" fill="#B3B2B1" points="53.6,36.4 53.7,36.3 57.5,36.3 57.7,31.3 57.7,31.3 53.7,36.3 		"/>
		<g clip-path="url(#SVGID_2_)">
			<defs>
				<rect id="SVGID_3_" y="-16.9" width="110" height="110"/>
			</defs>
			<clipPath id="SVGID_4_">
				<use xlink:href="#SVGID_3_"  overflow="visible"/>
			</clipPath>
			<path clip-path="url(#SVGID_4_)" fill="#C7C8CA" d="M95.2,24.7l3.9-11l1.2-2.9l-3-2L86,0.6l-39.8,0c-0.1,0-0.2,0-0.3,0
				c-1.2,0-4.4,0.2-7.9,1.6C32.1,4.7,27.9,9,25.7,14.9l-3.5,9.8h-7.6c-3.7,0-6.3,1.5-7.2,4.2c0,0-5.4,15.2-5.5,15.5
				c-0.3,0.8-1,2.1-1,2.1l13.5,0l-4,11.4l-1.4,2.9L11,62l11.9,8l1,0.9l1.3-0.1l37.8,0H63c1-0.1,4.8-0.4,8.8-1.8
				c2.5-0.9,4.7-2.2,6.5-3.7c2.3-1.9,3.9-4.2,4.8-6.8c0-0.1,1.5-4.2,4.3-12l7.1,0c5.1,0,7.1-2.5,7.8-4.5c0.9-2.4,4.8-13.4,5-14
				c0.3-0.9,1.4-3.3,1.4-3.3L95.2,24.7z M29.7,16.4C34,4.8,46.3,4.5,46.3,4.5l38.2,0l0,0v0l9.9,7.4l0.7,0.4l-0.3,0.6l-4.6,13
				l-11.3,0l-6.4,0l4.8-13.5l-28.1,0l-4.8,13.5H33.8l-7.6,0L29.7,16.4z M71.4,31.6L71.4,31.6l-6.7,0l0.9-2.4l18.4,0l-0.9,2.4l-6.4,0
				l-3.6,10.2l-5.5,0L71.4,31.6L71.4,31.6L71.4,31.6z M37.6,31.6L37.6,31.6l-6.3,0l0.9-2.4l18.1,0l-0.9,2.4l-6.5,0l-3.6,10.2l-5.5,0
				L37.6,31.6L37.6,31.6L37.6,31.6z M41.4,46.5l19.5,0l-3.1,8.6l-19.5,0L41.4,46.5z M57.1,41.7l0.2-3l-5.5,0l-2.3,3l-6.6,0l2.2-2.2
				l5.8-6.3c3.5-4.2,7.1-4,7.1-4l4.6,0l0,2.6l0.3,10L57.1,41.7z M49.1,24.7l3.1-8.8l19.5,0l-3.1,8.8H49.1z M7.5,41.7l0.9-2.4l13.6,0
				l0.4-1.2l0,0l0,0l-8.6-2.3c-0.6-0.2-1.1-0.4-1.4-0.7c-2.4-1.9-0.3-6,4.4-6c1.7,0,14.1,0,14.1,0l-0.9,2.4l-12.8,0l-0.5,1.2l0,0
				l0,0l8.5,2.2c0.8,0.2,1.4,0.6,1.8,1.1c0,0,0,0,0,0c1.7,2-0.2,5.6-4.5,5.6C19,41.7,7.5,41.7,7.5,41.7 M79.1,57.1
				c-3.2,9-16.3,9.7-16.3,9.7l-37.3,0l-9.3-6.6l-1.9-1.1l0.8-1.9l4.3-12.1l7.5,0c4.9,0,6.4,0,10.6,0l-4.8,13.3l28.1,0l4.7-13.3
				c2.4,0,4.5,0,6.3,0l11.4,0C79.8,55.1,79.8,55.1,79.1,57.1 M100.9,31.6l-11,0l-0.8,2.3l0,0l0.1,0l6.1,0l0,0l0,0h0l-1,2.7l-6.2,0
				l-1,2.7l0,0l0.1,0l11.1,0l-0.9,2.4l-16.6,0l2.9-7.8l0.5-1.3c1.5-3.7,5.8-3.5,5.8-3.5l11.9,0L100.9,31.6z"/>
			<path clip-path="url(#SVGID_4_)" d="M93.5,25.9c2.3-6.4,4-11.3,4-11.3l1.4-3.4l-3.5-2.3l-9.7-7.1l-39.4,0c-0.1,0-3.7-0.2-7.8,1.5
				c-5.5,2.3-9.5,6.4-11.6,12l-3.8,10.6h-8.4c-3.2,0-5.3,1.2-6.1,3.4C8.1,30.6,3,45,3,45.1c0,0.1-0.1,0.2-0.1,0.2h13.3l-4.4,12.4
				l-1.1,2.6l1.2,0.8L23,68.6l1.3,1l2.6,0l35.9,0c0.6,0,15.4-0.7,19.1-11.5c0-0.1,2-5.7,4.6-12.8h7.9c3.2,0,5.7-1,6.7-3.7
				c0.9-2.6,5.2-14.6,5.4-14.9c0.1-0.3,0.3-0.7,0.3-0.7L93.5,25.9z M71.4,31.6L71.4,31.6l-6.7,0l0.9-2.4l18.4,0l-0.9,2.4l-6.4,0
				l-3.6,10.2l-5.5,0L71.4,31.6L71.4,31.6L71.4,31.6z M37.6,31.6L37.6,31.6l-6.3,0l0.9-2.4l18.1,0l-0.9,2.4l-6.5,0l-3.6,10.2l-5.5,0
				L37.6,31.6L37.6,31.6L37.6,31.6z M36.6,56.3L36.6,56.3l3.9-11l22,0l0.1,0l-0.1,0.1l-3.9,11L36.6,56.3l-0.1,0.1L36.6,56.3z
				 M57.1,41.7l0.2-3l-5.5,0l-2.3,3l-6.6,0l2.2-2.2l5.8-6.3c3.5-4.2,7.1-4,7.1-4l4.6,0l0,2.6l0.3,10L57.1,41.7z M47.5,25.9l-0.1,0
				L47.5,25.9l3.9-11.2l22,0l0.1,0l-0.1,0.1l-4,11.1H47.5z M7.5,41.7l0.9-2.4l13.6,0l0.4-1.2l0,0l0,0l-8.6-2.3
				c-0.6-0.2-1.1-0.4-1.4-0.7c-2.4-1.9-0.3-6,4.4-6c1.7,0,14.1,0,14.1,0l-0.9,2.4l-12.8,0l-0.5,1.2l0,0l0,0l8.5,2.2
				c0.8,0.2,1.4,0.6,1.8,1.1c0,0,0,0,0,0c1.7,2-0.2,5.6-4.5,5.6C19,41.7,7.5,41.7,7.5,41.7 M100.9,31.6l-11,0l-0.8,2.3l0,0l0.1,0
				l6.1,0l0,0l0,0h0l-1,2.7l-6.2,0l-1,2.7l0,0l0.1,0l11.1,0l-0.9,2.4l-16.6,0l2.9-7.8l0.5-1.3c1.5-3.7,5.8-3.5,5.8-3.5l11.9,0
				L100.9,31.6z"/>
			<polygon clip-path="url(#SVGID_4_)" points="53.6,36.4 53.7,36.3 57.5,36.3 57.7,31.3 57.7,31.3 53.7,36.3 			"/>
			<path clip-path="url(#SVGID_4_)" d="M77.5,67.9l1,0c0.5,0,0.6,0.4,0.6,0.5c0,0.2-0.1,0.4-0.3,0.5C79,68.9,79,69,79,69.3
				c0,0.3,0,0.3,0.1,0.4l0,0l-0.4,0c0-0.1,0-0.2-0.1-0.4c0-0.3,0-0.4-0.3-0.4l-0.4,0l0,0.7l-0.4,0L77.5,67.9z M78.4,68.7
				c0.2,0,0.3-0.1,0.3-0.3c0-0.1,0-0.3-0.3-0.2l-0.5,0l0,0.5L78.4,68.7z"/>
			<path clip-path="url(#SVGID_4_)" d="M78.3,70.7L78.3,70.7c-1,0-1.9-0.8-1.9-1.9c0-1,0.8-1.9,1.8-1.9c1,0,1.9,0.8,1.9,1.9
				c0,0.5-0.2,1-0.5,1.3C79.2,70.5,78.8,70.7,78.3,70.7 M78.2,67.3c-0.9,0-1.5,0.7-1.5,1.6c0,0.9,0.7,1.5,1.6,1.5
				c0.4,0,0.8-0.2,1.1-0.5c0.3-0.3,0.4-0.7,0.4-1.1C79.8,68,79.1,67.3,78.2,67.3"/>
			<polygon clip-path="url(#SVGID_4_)" fill="#FF8300" points="78.9,25.9 85.1,8.4 77.3,12.4 72.5,25.9 			"/>
			<path clip-path="url(#SVGID_4_)" fill="#FF8300" d="M65.6,45.3l-4.7,13.3l-28.1,0l-7.5,4.1l34.8,0c0,0,6-0.2,7.8-5.7l4.1-11.7
				C70.1,45.3,68,45.3,65.6,45.3"/>
			<path clip-path="url(#SVGID_4_)" fill="#E75300" d="M71.9,45.3L67.8,57C66,62.5,60,62.7,60,62.7l-34.8,0l7.5-4.1l4.8-13.3
				c-4.2,0-5.7,0-10.6,0L23.9,54l-9.6,5.2l1.9,1.1l9.3,6.6l37.3,0c0,0,13.1-0.7,16.3-9.7c0.7-2.1,0.7-2.1,4.2-11.9L71.9,45.3z"/>
			<polygon clip-path="url(#SVGID_4_)" fill="#E75300" points="84.5,4.5 84.5,4.5 85.1,8.4 78.9,25.9 90.2,25.9 94.8,12.9 
				95.1,12.3 94.4,11.9 			"/>
			<path clip-path="url(#SVGID_4_)" fill="#FF8300" d="M47.8,8.3l37.3,0l-0.6-3.9l-38.2,0c0,0-12.3,0.2-16.6,11.8l-3.4,9.6l7.6,0
				l3.4-9.7C37.3,16.2,40,8.4,47.8,8.3"/>
			<path clip-path="url(#SVGID_4_)" fill="#E75300" d="M47.8,8.3c-7.8,0-10.5,7.9-10.5,7.9l-3.4,9.7h10.6l4.8-13.5l28.1,0l7.8-4.1
				L47.8,8.3z"/>
			<polygon clip-path="url(#SVGID_4_)" fill="#FF8300" points="27,45.3 19.4,45.3 15.1,57.3 14.3,59.2 23.9,54 			"/>
			<polygon clip-path="url(#SVGID_4_)" fill="#FF8300" points="98.2,39.3 87.1,39.3 87,39.3 84.7,40.5 96.6,40.5 			"/>
			<path clip-path="url(#SVGID_4_)" fill="#FF8300" d="M101.8,29.1l-11.9,0c0,0-4.3-0.2-5.8,3.5l-0.5,1.3l-2.9,7.8l2.9-1.5
				c0,0,2.2-6,2.5-7c0.3-1,0.9-2.9,3.5-2.9h9.9L101.8,29.1z"/>
			<path clip-path="url(#SVGID_4_)" fill="#E75300" d="M101.8,29.1l-2.2,1.2h-9.9c-2.6,0-3.2,1.9-3.5,2.9c-0.3,1-2.5,7-2.5,7
				l-2.9,1.5l16.6,0l0.9-2.4l-1.6,1.2l-11.9,0l2.3-1.2l0,0l1-2.7l6.2,0l1-2.7h0l0,0l-2.6,1.4l-6.2,0l2.7-1.4l0,0l0.8-2.3l11,0
				L101.8,29.1z"/>
			<polygon clip-path="url(#SVGID_4_)" fill="#FF8300" points="89,33.9 86.4,35.3 92.6,35.3 95.2,33.9 95.2,33.9 89.1,33.9 			"/>
			<polygon clip-path="url(#SVGID_4_)" fill="#FF8300" points="57.1,41.7 59.9,40.2 59.9,37.6 57.3,38.7 			"/>
			<polygon clip-path="url(#SVGID_4_)" fill="#FF8300" points="57.5,36.3 53.7,36.3 53.6,36.4 50.1,37.6 59.9,37.6 59.9,30 
				57.7,31.3 57.7,31.3 			"/>
			<path clip-path="url(#SVGID_4_)" fill="#E75300" d="M50.1,37.6l3.5-1.2l0.1,0l4-5.1l2.2-1.3l-1.1,0c-2.8,0.1-5.2,3.1-5.2,3.1
				l-6.2,7.1l-4.6,1.6l6.6,0l2.3-3l5.5,0l2.6-1.2L50.1,37.6z"/>
			<path clip-path="url(#SVGID_4_)" fill="#FF8300" d="M59.9,30l2.7-0.8l-4.6,0c0,0-3.6-0.2-7.1,4l-5.8,6.3l-2.2,2.2l4.6-1.6
				l6.2-7.1c0,0,2.4-3,5.2-3.1L59.9,30z"/>
			<polygon clip-path="url(#SVGID_4_)" fill="#E75300" points="62.6,31.8 62.5,29.1 59.9,30 59.9,37.6 59.9,40.2 57.1,41.7 
				62.9,41.7 			"/>
			<polygon clip-path="url(#SVGID_4_)" fill="#FF8300" points="64.7,31.6 67,30.4 81.7,30.4 84,29.1 65.6,29.1 			"/>
			<polygon clip-path="url(#SVGID_4_)" fill="#FF8300" points="71.4,31.6 71.4,31.6 71.4,31.6 67.6,41.7 70.6,40.1 74.2,30.4 			"/>
			<polygon clip-path="url(#SVGID_4_)" fill="#E75300" points="81.7,30.4 67,30.4 64.7,31.6 71.4,31.6 71.4,31.6 74.2,30.4 
				70.6,40.1 67.6,41.7 73.1,41.7 76.7,31.6 83.1,31.6 84,29.1 			"/>
			<polygon clip-path="url(#SVGID_4_)" fill="#FF8300" points="31.3,31.6 33.6,30.4 48,30.4 50.2,29.1 32.2,29.1 			"/>
			<polygon clip-path="url(#SVGID_4_)" fill="#FF8300" points="37.6,31.6 37.6,31.6 37.5,31.6 33.7,41.7 36.7,40.1 40.3,30.4 			"/>
			<polygon clip-path="url(#SVGID_4_)" fill="#E75300" points="48,30.4 33.6,30.4 31.3,31.6 37.5,31.6 37.6,31.6 40.3,30.4 
				36.7,40.1 33.7,41.7 39.3,41.7 42.9,31.6 49.3,31.6 50.2,29.1 			"/>
			<path clip-path="url(#SVGID_4_)" fill="#E75300" d="M27.1,36.1C27.1,36.1,27.1,36.1,27.1,36.1C27.1,36.1,27.1,36.1,27.1,36.1
				c-0.6,0.3-1.7,0.8-1.7,0.8s-0.1,0.3-0.7,1.8c-0.6,1.4-1.8,1.8-2.8,1.8H9.7l-2.2,1.2c0,0,11.5,0,15,0
				C26.9,41.7,28.8,38.1,27.1,36.1"/>
			<path clip-path="url(#SVGID_4_)" fill="#FF8300" d="M17,30.4h11.6l2.3-1.2c0,0-12.4,0-14.1,0c-4.7,0-6.8,4.2-4.4,6l2-1.3
				c0,0,0.2-0.9,0.4-1.9C15,31,15.9,30.4,17,30.4"/>
			<path clip-path="url(#SVGID_4_)" fill="#E75300" d="M28.6,30.4H17c-1.1,0-1.9,0.7-2.2,1.6c-0.3,1-0.4,1.9-0.4,1.9l2.3-1l0,0
				l0.5-1.2l12.8,0l0.9-2.4L28.6,30.4z"/>
			<path clip-path="url(#SVGID_4_)" fill="#FF8300" d="M22.4,38.2L22,39.3l-13.6,0l-0.9,2.4l2.2-1.2h12.2c1,0,2.2-0.4,2.8-1.8
				c0.6-1.4,0.7-1.8,0.7-1.8L22.4,38.2L22.4,38.2z"/>
			<path clip-path="url(#SVGID_4_)" fill="#FF8300" d="M25.2,35l-8.5-2.2l0,0l-2.3,1l11,3c0,0,1.1-0.5,1.7-0.8
				C26.7,35.6,26.1,35.3,25.2,35"/>
			<path clip-path="url(#SVGID_4_)" fill="#E75300" d="M22.4,38.1L22.4,38.1l2.9-1.2l-11-3l-2,1.3c0.4,0.3,0.8,0.5,1.4,0.7
				L22.4,38.1L22.4,38.1z"/>
		</g>
	</g>
</g>
<g>
	<path d="M134.4,19.7c4.1,0,7.3,1.1,9.7,3.3c2.4,2.2,3.5,5.1,3.5,8.9c0,3.5-0.7,6.6-2.2,9.5c-1.5,2.8-3.5,5-6.2,6.6
		s-5.7,2.3-9.1,2.3c-2.7,0-5-0.5-7-1.5c-2-1-3.5-2.5-4.6-4.3c-1-1.9-1.6-4.1-1.6-6.6c0-3.3,0.7-6.4,2.2-9.2c1.5-2.8,3.5-5,6.1-6.5
		C127.9,20.5,131,19.7,134.4,19.7z M134.1,24.6c-2.3,0-4.2,0.5-5.8,1.6s-2.8,2.6-3.7,4.7c-0.9,2.1-1.3,4.3-1.3,6.6
		c0,2.6,0.6,4.5,1.9,5.8s3,1.9,5.3,1.9c2.3,0,4.2-0.5,5.8-1.6s2.8-2.6,3.7-4.7c0.9-2.1,1.3-4.3,1.3-6.7c0-2.5-0.6-4.4-1.8-5.7
		C138.2,25.3,136.4,24.6,134.1,24.6z"/>
	<path d="M169.2,49.7l-7.5-13.4l-4.4,2.6l-2.1,10.9h-6.1l5.7-29.6h6.2l-2.7,13.4l16-13.4h7.7l-15.7,12.9l9.8,16.6H169.2z"/>
	<path d="M180.1,49.7l5.7-29.6h6.2L187.2,45h15.9l-0.9,4.8H180.1z"/>
	<path d="M227.5,49.7l-1.2-7.6H215l-4.1,7.6h-6.2l16.5-29.6h7.3l5,29.6H227.5z M224,24.7c-0.3,0.9-1,2.4-2.1,4.5l-4.5,8.4h8.3
		l-1.4-9.5C224.2,26.1,224,25,224,24.7z"/>
	<path d="M256.8,49.7l2.5-12.7h-13.1l-2.5,12.7h-6.2l5.7-29.6h6.2l-2.3,11.8h13.1l2.3-11.8h6l-5.8,29.6H256.8z"/>
	<path d="M287.2,19.7c4.1,0,7.3,1.1,9.7,3.3c2.4,2.2,3.5,5.1,3.5,8.9c0,3.5-0.7,6.6-2.2,9.5c-1.5,2.8-3.5,5-6.2,6.6
		s-5.7,2.3-9.1,2.3c-2.7,0-5-0.5-7-1.5c-2-1-3.5-2.5-4.6-4.3c-1-1.9-1.6-4.1-1.6-6.6c0-3.3,0.7-6.4,2.2-9.2c1.5-2.8,3.5-5,6.1-6.5
		C280.8,20.5,283.8,19.7,287.2,19.7z M286.9,24.6c-2.3,0-4.2,0.5-5.8,1.6s-2.8,2.6-3.7,4.7c-0.9,2.1-1.3,4.3-1.3,6.6
		c0,2.6,0.6,4.5,1.9,5.8s3,1.9,5.3,1.9c2.3,0,4.2-0.5,5.8-1.6s2.8-2.6,3.7-4.7c0.9-2.1,1.3-4.3,1.3-6.7c0-2.5-0.6-4.4-1.8-5.7
		C291,25.3,289.3,24.6,286.9,24.6z"/>
	<path d="M326.5,49.7l3.6-18.6c0.4-1.8,0.9-4.1,1.6-6.8l-1.4,3.2c-1.1,2.4-1.9,4.1-2.4,5l-8.7,17.1h-4.4l-2-17.2
		c-0.4-4.1-0.7-6.8-0.8-8.1c-0.4,3.4-0.7,5.6-0.9,6.7l-3.6,18.6h-5.5l5.8-29.6h8.3l1.8,16.5l0.5,5.8c0.5-1.1,1-2.1,1.4-3
		c0.4-0.9,3.7-7.3,9.7-19.3h8.3L332,49.7H326.5z"/>
	<path d="M358.8,49.7l-1.2-7.6h-11.3l-4.1,7.6h-6.2l16.5-29.6h7.3l5,29.6H358.8z M355.4,24.7c-0.3,0.9-1,2.4-2.1,4.5l-4.5,8.4h8.3
		l-1.4-9.5C355.5,26.1,355.4,25,355.4,24.7z"/>
	<path d="M391,50.2c-3.7,0-6.6-0.7-8.5-2c-2-1.3-3.1-3.4-3.5-6.1l6.1-1c0.3,1.6,0.9,2.7,2,3.4s2.5,1.1,4.5,1.1
		c4.8,0,7.2-1.4,7.2-4.2c0-1.1-0.4-2-1.3-2.7c-0.8-0.7-2.5-1.3-5-1.9c-2.6-0.7-4.5-1.4-5.7-2.1c-1.2-0.7-2.2-1.6-2.8-2.7
		c-0.7-1.1-1-2.4-1-3.9c0-2.5,1.1-4.5,3.3-6s5.1-2.3,8.7-2.3c3.3,0,6,0.6,8,1.8c2,1.2,3.3,3,3.7,5.3l-6,1.4c-0.3-1.3-1-2.3-2-3
		c-1-0.7-2.4-1.1-4-1.1c-1.7,0-3.1,0.3-4.1,1c-1,0.7-1.5,1.5-1.5,2.7c0,0.7,0.2,1.2,0.5,1.7s0.9,0.9,1.6,1.2
		c0.7,0.3,2.1,0.8,4.2,1.4c2.2,0.6,3.9,1.2,4.9,1.7c1.1,0.5,1.9,1.1,2.6,1.8c0.6,0.7,1.1,1.4,1.5,2.3c0.3,0.9,0.5,1.9,0.5,3
		c0,3-1.2,5.3-3.5,6.9C398.9,49.4,395.5,50.2,391,50.2z"/>
	<path d="M425.9,24.9l-4.8,24.8h-6.2l4.8-24.8h-9.6l0.9-4.8h25.3l-0.9,4.8H425.9z"/>
	<path d="M452,49.7l-1.2-7.6h-11.3l-4.1,7.6h-6.2l16.5-29.6h7.3l5,29.6H452z M448.6,24.7c-0.3,0.9-1,2.4-2.1,4.5l-4.5,8.4h8.3
		l-1.4-9.5C448.7,26.1,448.6,25,448.6,24.7z"/>
	<path d="M476.8,24.9L472,49.7h-6.2l4.8-24.8h-9.6l0.9-4.8h25.3l-0.9,4.8H476.8z"/>
	<path d="M485.1,49.7l5.7-29.6H514l-0.9,4.8h-17.1l-1.4,7.4h15.8l-0.9,4.8h-15.8l-1.5,7.8h17.9l-0.9,4.8H485.1z"/>
	<path d="M539.4,45.3c2.3,0,4.1-0.5,5.3-1.6c1.2-1.1,2-2.8,2.5-5.3l3.5-18.2h6.2l-3.6,18.5c-0.8,3.9-2.3,6.8-4.6,8.7
		s-5.5,2.8-9.6,2.8c-3.7,0-6.6-0.8-8.6-2.5c-2-1.6-3-4-3-7c0-0.6,0.1-1.4,0.2-2.2c0.1-0.9,0.2-1.5,0.3-2.1l3.1-16.3h6.2l-3.2,17
		c-0.3,1.2-0.4,2.4-0.4,3.6c0,1.4,0.5,2.6,1.5,3.3C536.2,44.9,537.6,45.3,539.4,45.3z"/>
	<path d="M574.5,49.7L566.7,26c-0.3,2.3-0.6,3.9-0.8,5l-3.7,18.7h-5.5l5.8-29.6h7.3l7.9,24l0.3-1.7c0.2-1.2,0.4-2.4,0.6-3.7
		l3.7-18.6h5.5L582,49.7H574.5z"/>
	<path d="M587.8,49.7l5.7-29.6h6.2L594,49.7H587.8z"/>
	<path d="M614.5,49.7h-7.1l-4.8-29.6h6.4l2.4,19c0.2,2.1,0.4,3.9,0.5,5.6c0.7-1.5,1.2-2.7,1.6-3.5c0.4-0.9,4-7.9,10.8-21.1h6.5
		L614.5,49.7z"/>
	<path d="M628.4,49.7l5.7-29.6h23.3l-0.9,4.8h-17.1l-1.4,7.4h15.8l-0.9,4.8H637l-1.5,7.8h17.9l-0.9,4.8H628.4z"/>
	<path d="M677.5,49.7l-4.8-11.2h-7.3l-2.2,11.2h-6.2l5.8-29.6h13.7c2.2,0,4.1,0.3,5.7,1c1.6,0.7,2.8,1.7,3.6,2.9
		c0.8,1.3,1.2,2.8,1.2,4.5c0,2.3-0.8,4.3-2.3,5.9c-1.5,1.6-3.6,2.6-6.2,3l5.8,12.2H677.5z M674.6,33.7c2,0,3.6-0.4,4.6-1.2
		c1-0.8,1.6-2,1.6-3.5c0-1.3-0.4-2.3-1.3-3c-0.9-0.7-2.1-1-3.7-1h-7.6l-1.7,8.7H674.6z"/>
	<path d="M700,50.2c-3.7,0-6.6-0.7-8.5-2c-2-1.3-3.1-3.4-3.5-6.1l6.1-1c0.3,1.6,0.9,2.7,2,3.4s2.5,1.1,4.5,1.1
		c4.8,0,7.2-1.4,7.2-4.2c0-1.1-0.4-2-1.3-2.7c-0.8-0.7-2.5-1.3-5-1.9c-2.6-0.7-4.5-1.4-5.7-2.1c-1.2-0.7-2.2-1.6-2.8-2.7
		c-0.7-1.1-1-2.4-1-3.9c0-2.5,1.1-4.5,3.3-6s5.1-2.3,8.7-2.3c3.3,0,6,0.6,8,1.8c2,1.2,3.3,3,3.7,5.3l-6,1.4c-0.3-1.3-1-2.3-2-3
		c-1-0.7-2.4-1.1-4-1.1c-1.7,0-3.1,0.3-4.1,1c-1,0.7-1.5,1.5-1.5,2.7c0,0.7,0.2,1.2,0.5,1.7s0.9,0.9,1.6,1.2
		c0.7,0.3,2.1,0.8,4.2,1.4c2.2,0.6,3.9,1.2,4.9,1.7c1.1,0.5,1.9,1.1,2.6,1.8c0.6,0.7,1.1,1.4,1.5,2.3c0.3,0.9,0.5,1.9,0.5,3
		c0,3-1.2,5.3-3.5,6.9C707.9,49.4,704.5,50.2,700,50.2z"/>
	<path d="M716.8,49.7l5.7-29.6h6.2L723,49.7H716.8z"/>
	<path d="M746.8,24.9L742,49.7h-6.2l4.8-24.8h-9.6l0.9-4.8h25.3l-0.9,4.8H746.8z"/>
	<path d="M769.5,49.7h-6.2l2.4-12.1l-7.8-17.4h6.1l5.4,12.7l10-12.7h6.8l-14.4,17.4L769.5,49.7z"/>
</g>
</svg>
